<mxfile modified="2023-07-15T10:32:14.180Z" host="app.diagrams.net" agent="Mozilla/5.0 (Windows NT 10.0; Win64; x64; rv:109.0) Gecko/20100101 Firefox/115.0" etag="4oXxST3o5ut9BpCPzCki" version="21.3.8" type="device">
  <diagram id="Ht1M8jgEwFfnCIfOTk4-" name="Page-1">
    <mxGraphModel dx="2207" dy="2207" grid="0" gridSize="10" guides="1" tooltips="1" connect="1" arrows="1" fold="1" page="0" pageScale="1" pageWidth="1169" pageHeight="827" math="0" shadow="0">
      <root>
        <mxCell id="0" />
        <mxCell id="1" parent="0" />
        <mxCell id="m4GRKbJbeiHfgQDH205f-45" value="VPC" style="sketch=0;outlineConnect=0;gradientColor=none;html=1;whiteSpace=wrap;fontSize=12;fontStyle=0;shape=mxgraph.aws4.group;grIcon=mxgraph.aws4.group_vpc;strokeColor=#879196;fillColor=none;verticalAlign=top;align=left;spacingLeft=30;fontColor=#879196;dashed=0;" vertex="1" parent="1">
          <mxGeometry x="877" y="-325" width="1290" height="952" as="geometry" />
        </mxCell>
        <mxCell id="m4GRKbJbeiHfgQDH205f-13" style="edgeStyle=orthogonalEdgeStyle;rounded=0;orthogonalLoop=1;jettySize=auto;html=1;exitX=1;exitY=0.5;exitDx=0;exitDy=0;exitPerimeter=0;entryX=0.5;entryY=0;entryDx=0;entryDy=0;" edge="1" parent="1" source="m4GRKbJbeiHfgQDH205f-1" target="m4GRKbJbeiHfgQDH205f-7">
          <mxGeometry relative="1" as="geometry" />
        </mxCell>
        <mxCell id="m4GRKbJbeiHfgQDH205f-42" style="edgeStyle=orthogonalEdgeStyle;rounded=0;orthogonalLoop=1;jettySize=auto;html=1;" edge="1" parent="1" source="m4GRKbJbeiHfgQDH205f-1">
          <mxGeometry relative="1" as="geometry">
            <mxPoint x="1806" y="-243" as="targetPoint" />
            <Array as="points">
              <mxPoint x="1708" y="-243" />
              <mxPoint x="1806" y="-243" />
            </Array>
          </mxGeometry>
        </mxCell>
        <mxCell id="m4GRKbJbeiHfgQDH205f-1" value="&lt;div style=&quot;font-size: 18px;&quot;&gt;pending-task-queue&lt;/div&gt;&lt;div style=&quot;font-size: 18px;&quot;&gt;&lt;br style=&quot;font-size: 18px;&quot;&gt;&lt;/div&gt;" style="sketch=0;points=[[0,0,0],[0.25,0,0],[0.5,0,0],[0.75,0,0],[1,0,0],[0,1,0],[0.25,1,0],[0.5,1,0],[0.75,1,0],[1,1,0],[0,0.25,0],[0,0.5,0],[0,0.75,0],[1,0.25,0],[1,0.5,0],[1,0.75,0]];outlineConnect=0;fontColor=#232F3E;gradientColor=#FF4F8B;gradientDirection=north;fillColor=#BC1356;strokeColor=#ffffff;dashed=0;verticalLabelPosition=bottom;verticalAlign=top;align=center;html=1;fontSize=18;fontStyle=0;aspect=fixed;shape=mxgraph.aws4.resourceIcon;resIcon=mxgraph.aws4.sqs;fontFamily=Verdana;" vertex="1" parent="1">
          <mxGeometry x="1650" y="-120" width="78" height="78" as="geometry" />
        </mxCell>
        <mxCell id="m4GRKbJbeiHfgQDH205f-11" style="edgeStyle=orthogonalEdgeStyle;rounded=0;orthogonalLoop=1;jettySize=auto;html=1;exitX=0;exitY=0.5;exitDx=0;exitDy=0;exitPerimeter=0;entryX=0.5;entryY=1;entryDx=0;entryDy=0;" edge="1" parent="1" source="m4GRKbJbeiHfgQDH205f-2" target="m4GRKbJbeiHfgQDH205f-5">
          <mxGeometry relative="1" as="geometry" />
        </mxCell>
        <mxCell id="m4GRKbJbeiHfgQDH205f-2" value="output-batch-queue" style="sketch=0;points=[[0,0,0],[0.25,0,0],[0.5,0,0],[0.75,0,0],[1,0,0],[0,1,0],[0.25,1,0],[0.5,1,0],[0.75,1,0],[1,1,0],[0,0.25,0],[0,0.5,0],[0,0.75,0],[1,0.25,0],[1,0.5,0],[1,0.75,0]];outlineConnect=0;fontColor=#232F3E;gradientColor=#FF4F8B;gradientDirection=north;fillColor=#BC1356;strokeColor=#ffffff;dashed=0;verticalLabelPosition=bottom;verticalAlign=top;align=center;html=1;fontSize=18;fontStyle=0;aspect=fixed;shape=mxgraph.aws4.resourceIcon;resIcon=mxgraph.aws4.sqs;fontFamily=Verdana;" vertex="1" parent="1">
          <mxGeometry x="1650" y="259.5" width="78" height="78" as="geometry" />
        </mxCell>
        <mxCell id="m4GRKbJbeiHfgQDH205f-20" style="edgeStyle=orthogonalEdgeStyle;rounded=0;orthogonalLoop=1;jettySize=auto;html=1;" edge="1" parent="1" source="m4GRKbJbeiHfgQDH205f-3" target="m4GRKbJbeiHfgQDH205f-16">
          <mxGeometry relative="1" as="geometry" />
        </mxCell>
        <mxCell id="m4GRKbJbeiHfgQDH205f-21" style="edgeStyle=orthogonalEdgeStyle;rounded=0;orthogonalLoop=1;jettySize=auto;html=1;entryX=0;entryY=0.25;entryDx=0;entryDy=0;entryPerimeter=0;exitX=0;exitY=0.75;exitDx=0;exitDy=0;exitPerimeter=0;" edge="1" parent="1" source="m4GRKbJbeiHfgQDH205f-3" target="m4GRKbJbeiHfgQDH205f-17">
          <mxGeometry relative="1" as="geometry">
            <Array as="points">
              <mxPoint x="1429" y="143" />
              <mxPoint x="1429" y="509" />
            </Array>
          </mxGeometry>
        </mxCell>
        <mxCell id="m4GRKbJbeiHfgQDH205f-28" style="edgeStyle=orthogonalEdgeStyle;rounded=0;orthogonalLoop=1;jettySize=auto;html=1;entryX=0.5;entryY=1;entryDx=0;entryDy=0;exitX=0;exitY=0.25;exitDx=0;exitDy=0;exitPerimeter=0;" edge="1" parent="1" source="m4GRKbJbeiHfgQDH205f-3" target="m4GRKbJbeiHfgQDH205f-30">
          <mxGeometry relative="1" as="geometry">
            <mxPoint x="1470" y="-310" as="targetPoint" />
            <Array as="points">
              <mxPoint x="1430" y="105" />
              <mxPoint x="1430" y="-330" />
            </Array>
          </mxGeometry>
        </mxCell>
        <mxCell id="m4GRKbJbeiHfgQDH205f-3" value="Processor" style="sketch=0;points=[[0,0,0],[0.25,0,0],[0.5,0,0],[0.75,0,0],[1,0,0],[0,1,0],[0.25,1,0],[0.5,1,0],[0.75,1,0],[1,1,0],[0,0.25,0],[0,0.5,0],[0,0.75,0],[1,0.25,0],[1,0.5,0],[1,0.75,0]];outlineConnect=0;fontColor=#232F3E;gradientColor=#F78E04;gradientDirection=north;fillColor=#D05C17;strokeColor=#ffffff;dashed=0;verticalLabelPosition=bottom;verticalAlign=top;align=center;html=1;fontSize=18;fontStyle=0;aspect=fixed;shape=mxgraph.aws4.resourceIcon;resIcon=mxgraph.aws4.ecs_anywhere;fontFamily=Verdana;" vertex="1" parent="1">
          <mxGeometry x="1460" y="85" width="78" height="78" as="geometry" />
        </mxCell>
        <mxCell id="m4GRKbJbeiHfgQDH205f-12" style="edgeStyle=orthogonalEdgeStyle;rounded=0;orthogonalLoop=1;jettySize=auto;html=1;entryX=0;entryY=0.5;entryDx=0;entryDy=0;entryPerimeter=0;exitX=0.5;exitY=0;exitDx=0;exitDy=0;" edge="1" parent="1" source="m4GRKbJbeiHfgQDH205f-5" target="m4GRKbJbeiHfgQDH205f-1">
          <mxGeometry relative="1" as="geometry" />
        </mxCell>
        <mxCell id="m4GRKbJbeiHfgQDH205f-5" value="Vertical Scaling" style="points=[[0,0],[0.25,0],[0.5,0],[0.75,0],[1,0],[1,0.25],[1,0.5],[1,0.75],[1,1],[0.75,1],[0.5,1],[0.25,1],[0,1],[0,0.75],[0,0.5],[0,0.25]];outlineConnect=0;gradientColor=none;html=1;whiteSpace=wrap;fontSize=12;fontStyle=0;container=1;pointerEvents=0;collapsible=0;recursiveResize=0;shape=mxgraph.aws4.groupCenter;grIcon=mxgraph.aws4.group_auto_scaling_group;grStroke=1;strokeColor=#D86613;fillColor=none;verticalAlign=top;align=center;fontColor=#D86613;dashed=1;spacingTop=25;" vertex="1" parent="1">
          <mxGeometry x="1400" y="25" width="200" height="180" as="geometry" />
        </mxCell>
        <mxCell id="m4GRKbJbeiHfgQDH205f-14" style="edgeStyle=orthogonalEdgeStyle;rounded=0;orthogonalLoop=1;jettySize=auto;html=1;exitX=0.5;exitY=1;exitDx=0;exitDy=0;entryX=1;entryY=0.5;entryDx=0;entryDy=0;entryPerimeter=0;" edge="1" parent="1" source="m4GRKbJbeiHfgQDH205f-7" target="m4GRKbJbeiHfgQDH205f-2">
          <mxGeometry relative="1" as="geometry" />
        </mxCell>
        <mxCell id="m4GRKbJbeiHfgQDH205f-18" style="edgeStyle=orthogonalEdgeStyle;rounded=0;orthogonalLoop=1;jettySize=auto;html=1;entryX=0;entryY=0.5;entryDx=0;entryDy=0;entryPerimeter=0;" edge="1" parent="1" source="m4GRKbJbeiHfgQDH205f-15" target="m4GRKbJbeiHfgQDH205f-17">
          <mxGeometry relative="1" as="geometry">
            <Array as="points">
              <mxPoint x="969" y="529" />
            </Array>
          </mxGeometry>
        </mxCell>
        <mxCell id="m4GRKbJbeiHfgQDH205f-19" style="edgeStyle=orthogonalEdgeStyle;rounded=0;orthogonalLoop=1;jettySize=auto;html=1;" edge="1" parent="1" source="m4GRKbJbeiHfgQDH205f-15" target="m4GRKbJbeiHfgQDH205f-16">
          <mxGeometry relative="1" as="geometry" />
        </mxCell>
        <mxCell id="m4GRKbJbeiHfgQDH205f-44" style="edgeStyle=orthogonalEdgeStyle;rounded=0;orthogonalLoop=1;jettySize=auto;html=1;entryX=0;entryY=0.25;entryDx=0;entryDy=0;entryPerimeter=0;" edge="1" parent="1" source="m4GRKbJbeiHfgQDH205f-15" target="m4GRKbJbeiHfgQDH205f-1">
          <mxGeometry relative="1" as="geometry">
            <Array as="points">
              <mxPoint x="969" y="-100" />
            </Array>
          </mxGeometry>
        </mxCell>
        <mxCell id="m4GRKbJbeiHfgQDH205f-47" style="edgeStyle=orthogonalEdgeStyle;rounded=0;orthogonalLoop=1;jettySize=auto;html=1;entryX=0;entryY=0.5;entryDx=0;entryDy=0;entryPerimeter=0;" edge="1" parent="1" source="m4GRKbJbeiHfgQDH205f-15" target="m4GRKbJbeiHfgQDH205f-46">
          <mxGeometry relative="1" as="geometry">
            <Array as="points">
              <mxPoint x="969" y="-243" />
            </Array>
          </mxGeometry>
        </mxCell>
        <mxCell id="m4GRKbJbeiHfgQDH205f-15" value="Lambda API" style="sketch=0;points=[[0,0,0],[0.25,0,0],[0.5,0,0],[0.75,0,0],[1,0,0],[0,1,0],[0.25,1,0],[0.5,1,0],[0.75,1,0],[1,1,0],[0,0.25,0],[0,0.5,0],[0,0.75,0],[1,0.25,0],[1,0.5,0],[1,0.75,0]];outlineConnect=0;fontColor=#232F3E;gradientColor=#F78E04;gradientDirection=north;fillColor=#D05C17;strokeColor=#ffffff;dashed=0;verticalLabelPosition=bottom;verticalAlign=top;align=center;html=1;fontSize=18;fontStyle=0;aspect=fixed;shape=mxgraph.aws4.resourceIcon;resIcon=mxgraph.aws4.lambda;fontFamily=Verdana;labelBackgroundColor=default;" vertex="1" parent="1">
          <mxGeometry x="930" y="85" width="78" height="78" as="geometry" />
        </mxCell>
        <mxCell id="m4GRKbJbeiHfgQDH205f-16" value="RDS DB" style="sketch=0;outlineConnect=0;fontColor=#232F3E;gradientColor=none;fillColor=#2E27AD;strokeColor=none;dashed=0;verticalLabelPosition=bottom;verticalAlign=top;align=center;html=1;fontSize=18;fontStyle=0;aspect=fixed;pointerEvents=1;shape=mxgraph.aws4.rds_postgresql_instance;fontFamily=Verdana;" vertex="1" parent="1">
          <mxGeometry x="1169" y="85" width="78" height="78" as="geometry" />
        </mxCell>
        <mxCell id="m4GRKbJbeiHfgQDH205f-17" value="EFS&lt;br&gt; Network File System" style="sketch=0;points=[[0,0,0],[0.25,0,0],[0.5,0,0],[0.75,0,0],[1,0,0],[0,1,0],[0.25,1,0],[0.5,1,0],[0.75,1,0],[1,1,0],[0,0.25,0],[0,0.5,0],[0,0.75,0],[1,0.25,0],[1,0.5,0],[1,0.75,0]];outlineConnect=0;fontColor=#232F3E;gradientColor=#60A337;gradientDirection=north;fillColor=#277116;strokeColor=#ffffff;dashed=0;verticalLabelPosition=bottom;verticalAlign=top;align=center;html=1;fontSize=18;fontStyle=0;aspect=fixed;shape=mxgraph.aws4.resourceIcon;resIcon=mxgraph.aws4.efs_standard;fontFamily=Verdana;" vertex="1" parent="1">
          <mxGeometry x="1650" y="490" width="78" height="78" as="geometry" />
        </mxCell>
        <mxCell id="m4GRKbJbeiHfgQDH205f-39" style="edgeStyle=orthogonalEdgeStyle;rounded=0;orthogonalLoop=1;jettySize=auto;html=1;entryX=0;entryY=0.5;entryDx=0;entryDy=0;entryPerimeter=0;" edge="1" parent="1" source="m4GRKbJbeiHfgQDH205f-26" target="m4GRKbJbeiHfgQDH205f-15">
          <mxGeometry relative="1" as="geometry" />
        </mxCell>
        <mxCell id="m4GRKbJbeiHfgQDH205f-26" value="pwnctl cli" style="shape=image;html=1;verticalAlign=top;verticalLabelPosition=bottom;labelBackgroundColor=#ffffff;imageAspect=0;aspect=fixed;image=https://cdn2.iconfinder.com/data/icons/whcompare-isometric-web-hosting-servers/50/root-access-128.png;fontFamily=Verdana;fontSize=18;" vertex="1" parent="1">
          <mxGeometry x="690" y="74" width="100" height="100" as="geometry" />
        </mxCell>
        <mxCell id="m4GRKbJbeiHfgQDH205f-30" value="" style="shape=image;imageAspect=0;aspect=fixed;verticalLabelPosition=bottom;verticalAlign=top;image=data:image/png,iVBORw0KGgoAAAANSUhEUgAAAfQAAAH0CAYAAADL1t+KAAAACXBIWXMAAAsTAAALEwEAmpwYAAALkmlUWHRYTUw6Y29tLmFkb2JlLnhtcAAAAAAAPD94cGFja2V0IGJlZ2luPSLvu78iIGlkPSJXNU0wTXBDZWhpSHpyZVN6TlRjemtjOWQiPz4gPHg6eG1wbWV0YSB4bWxuczp4PSJhZG9iZTpuczptZXRhLyIgeDp4bXB0az0iQWRvYmUgWE1QIENvcmUgNS42LWMxNDUgNzkuMTYzNDk5LCAyMDE4LzA4LzEzLTE2OjQwOjIyICAgICAgICAiPiA8cmRmOlJERiB4bWxuczpyZGY9Imh0dHA6Ly93d3cudzMub3JnLzE5OTkvMDIvMjItcmRmLXN5bnRheC1ucyMiPiA8cmRmOkRlc2NyaXB0aW9uIHJkZjphYm91dD0iIiB4bWxuczp4bXA9Imh0dHA6Ly9ucy5hZG9iZS5jb20veGFwLzEuMC8iIHhtbG5zOmRjPSJodHRwOi8vcHVybC5vcmcvZGMvZWxlbWVudHMvMS4xLyIgeG1sbnM6eG1wTU09Imh0dHA6Ly9ucy5hZG9iZS5jb20veGFwLzEuMC9tbS8iIHhtbG5zOnN0RXZ0PSJodHRwOi8vbnMuYWRvYmUuY29tL3hhcC8xLjAvc1R5cGUvUmVzb3VyY2VFdmVudCMiIHhtbG5zOnN0UmVmPSJodHRwOi8vbnMuYWRvYmUuY29tL3hhcC8xLjAvc1R5cGUvUmVzb3VyY2VSZWYjIiB4bWxuczpwaG90b3Nob3A9Imh0dHA6Ly9ucy5hZG9iZS5jb20vcGhvdG9zaG9wLzEuMC8iIHhtcDpDcmVhdG9yVG9vbD0iQWRvYmUgUGhvdG9zaG9wIENDIDIwMTkgKFdpbmRvd3MpIiB4bXA6Q3JlYXRlRGF0ZT0iMjAyMS0wMi0xNVQxODozODo1OSswNTowMCIgeG1wOk1ldGFkYXRhRGF0ZT0iMjAyMS0wNS0yNlQxODo1MDoyNCswNTowMCIgeG1wOk1vZGlmeURhdGU9IjIwMjEtMDUtMjZUMTg6NTA6MjQrMDU6MDAiIGRjOmZvcm1hdD0iaW1hZ2UvcG5nIiB4bXBNTTpJbnN0YW5jZUlEPSJ4bXAuaWlkOmE4MjFlNWQ1LWFkM2ItYzA0OS05ZGM2LTNlZWYzN2I0MzkzYiIgeG1wTU06RG9jdW1lbnRJRD0iYWRvYmU6ZG9jaWQ6cGhvdG9zaG9wOjlhZTJkNDk0LTdlZGMtZDY0NC05ZTBjLWIzMWRlNmEwNWE4MiIgeG1wTU06T3JpZ2luYWxEb2N1bWVudElEPSJ4bXAuZGlkOmUxY2IyNDljLTZiMDYtNDc0Yi1iNGFhLTQxMTU3ZDE5ZWM4MSIgcGhvdG9zaG9wOkNvbG9yTW9kZT0iMyIgcGhvdG9zaG9wOklDQ1Byb2ZpbGU9InNSR0IgSUVDNjE5NjYtMi4xIj4gPHhtcE1NOkhpc3Rvcnk+IDxyZGY6U2VxPiA8cmRmOmxpIHN0RXZ0OmFjdGlvbj0iY3JlYXRlZCIgc3RFdnQ6aW5zdGFuY2VJRD0ieG1wLmlpZDplMWNiMjQ5Yy02YjA2LTQ3NGItYjRhYS00MTE1N2QxOWVjODEiIHN0RXZ0OndoZW49IjIwMjEtMDItMTVUMTg6Mzg6NTkrMDU6MDAiIHN0RXZ0OnNvZnR3YXJlQWdlbnQ9IkFkb2JlIFBob3Rvc2hvcCBDQyAyMDE5IChXaW5kb3dzKSIvPiA8cmRmOmxpIHN0RXZ0OmFjdGlvbj0ic2F2ZWQiIHN0RXZ0Omluc3RhbmNlSUQ9InhtcC5paWQ6M2UwOWRiNGItMDVmZC0wZjQ3LTk5ZjQtMmIzZDI0NjBiN2JhIiBzdEV2dDp3aGVuPSIyMDIxLTAyLTE1VDE4OjU4OjM0KzA1OjAwIiBzdEV2dDpzb2Z0d2FyZUFnZW50PSJBZG9iZSBQaG90b3Nob3AgQ0MgMjAxOSAoV2luZG93cykiIHN0RXZ0OmNoYW5nZWQ9Ii8iLz4gPHJkZjpsaSBzdEV2dDphY3Rpb249InNhdmVkIiBzdEV2dDppbnN0YW5jZUlEPSJ4bXAuaWlkOjllMWNmMWI1LWU3NDAtNzM0Yy05Y2ZhLWM3ZTYwMmJkNmU3ZSIgc3RFdnQ6d2hlbj0iMjAyMS0wMi0xNVQxOTowOToyNCswNTowMCIgc3RFdnQ6c29mdHdhcmVBZ2VudD0iQWRvYmUgUGhvdG9zaG9wIENDIDIwMTkgKFdpbmRvd3MpIiBzdEV2dDpjaGFuZ2VkPSIvIi8+IDxyZGY6bGkgc3RFdnQ6YWN0aW9uPSJjb252ZXJ0ZWQiIHN0RXZ0OnBhcmFtZXRlcnM9ImZyb20gYXBwbGljYXRpb24vdm5kLmFkb2JlLnBob3Rvc2hvcCB0byBpbWFnZS9wbmciLz4gPHJkZjpsaSBzdEV2dDphY3Rpb249ImRlcml2ZWQiIHN0RXZ0OnBhcmFtZXRlcnM9ImNvbnZlcnRlZCBmcm9tIGFwcGxpY2F0aW9uL3ZuZC5hZG9iZS5waG90b3Nob3AgdG8gaW1hZ2UvcG5nIi8+IDxyZGY6bGkgc3RFdnQ6YWN0aW9uPSJzYXZlZCIgc3RFdnQ6aW5zdGFuY2VJRD0ieG1wLmlpZDplNDVhMjBjMi0yZjY0LTNhNDEtYmRiYS1mZmMxNWI1OTVkZjAiIHN0RXZ0OndoZW49IjIwMjEtMDItMTVUMTk6MDk6MjQrMDU6MDAiIHN0RXZ0OnNvZnR3YXJlQWdlbnQ9IkFkb2JlIFBob3Rvc2hvcCBDQyAyMDE5IChXaW5kb3dzKSIgc3RFdnQ6Y2hhbmdlZD0iLyIvPiA8cmRmOmxpIHN0RXZ0OmFjdGlvbj0ic2F2ZWQiIHN0RXZ0Omluc3RhbmNlSUQ9InhtcC5paWQ6YTgyMWU1ZDUtYWQzYi1jMDQ5LTlkYzYtM2VlZjM3YjQzOTNiIiBzdEV2dDp3aGVuPSIyMDIxLTA1LTI2VDE4OjUwOjI0KzA1OjAwIiBzdEV2dDpzb2Z0d2FyZUFnZW50PSJBZG9iZSBQaG90b3Nob3AgQ0MgMjAxOSAoV2luZG93cykiIHN0RXZ0OmNoYW5nZWQ9Ii8iLz4gPC9yZGY6U2VxPiA8L3htcE1NOkhpc3Rvcnk+IDx4bXBNTTpEZXJpdmVkRnJvbSBzdFJlZjppbnN0YW5jZUlEPSJ4bXAuaWlkOjllMWNmMWI1LWU3NDAtNzM0Yy05Y2ZhLWM3ZTYwMmJkNmU3ZSIgc3RSZWY6ZG9jdW1lbnRJRD0ieG1wLmRpZDplMWNiMjQ5Yy02YjA2LTQ3NGItYjRhYS00MTE1N2QxOWVjODEiIHN0UmVmOm9yaWdpbmFsRG9jdW1lbnRJRD0ieG1wLmRpZDplMWNiMjQ5Yy02YjA2LTQ3NGItYjRhYS00MTE1N2QxOWVjODEiLz4gPHBob3Rvc2hvcDpEb2N1bWVudEFuY2VzdG9ycz4gPHJkZjpCYWc+IDxyZGY6bGk+YWRvYmU6ZG9jaWQ6cGhvdG9zaG9wOjAyNDZmMzY0LTI4MzUtZGY0OC1iOGIyLWYxOTliZWY4NWQyNjwvcmRmOmxpPiA8cmRmOmxpPmFkb2JlOmRvY2lkOnBob3Rvc2hvcDo1ZGRjZmU1MS0xZDQxLWZjNDItOTc2Yy1hMmE3OTlhZGQ5NmM8L3JkZjpsaT4gPHJkZjpsaT5hZG9iZTpkb2NpZDpwaG90b3Nob3A6NzA1ZGFhZWEtM2Y5ZS1kMjQ3LWI2ZTItMzNmNDVhNDIyZGQ2PC9yZGY6bGk+IDwvcmRmOkJhZz4gPC9waG90b3Nob3A6RG9jdW1lbnRBbmNlc3RvcnM+IDwvcmRmOkRlc2NyaXB0aW9uPiA8L3JkZjpSREY+IDwveDp4bXBtZXRhPiA8P3hwYWNrZXQgZW5kPSJyIj8+wg6YdgAAUJpJREFUeNrtvXm0VVV26F1Wlb5KvUpSqaTyjVRVfEleKs3Lyx/pK2O8JC818lL1RpJ65RvfV1JlR9GDgIA0giCNiCi9HaKoqIANKogCKmADCEijiHTS931/7z17n7Ob+a259r56Qbjc7pyzm98a4zdSUbncs8/e67fXXHPO9SUR+RIAAACkGy4CAAAAQgcAAACEDgAAAAgdAAAAEDoAAABCBwAAAIQOAAAACB0AAAAQOgAAAEIHAAAAhA4AAAAIHQAAABA6AAAAQgcAAACEDgAAAAgdAAAAEDoAAABCBwAAAIQOAAAACB0AAAAQOgAAAEIHAAAAhA4AAAAIHQAAABA6AAAAQgcAAACEDgAAAAgdAAAAEDoAAABCBwAAAIQOAAAACB0AAAAQOgAAAEIHAAAAhA4AAAAIHQAAABA6AAAAQgcAAACEDgAAAAgdAAAAEDoAAABC5yIAAAAgdAAAAEDoAAAAgNABAAAAoQMAACB0AAAAQOgAAACA0AEAAAChAwAAIHQAAABA6AAAAIDQAQAAAKEDAAAgdAAAAEDolaVd5/MAAAAXgNAROkCl+U3DHxn+3vBvhpsNfQ2jDVMNLxkWG9YZNhh2GQ4ZTjdALkHDf38o/nMb4p+zOP65U+O/p2/89/57/Hv8Ufx78f0AQkfoCB3A8FXDfzX8yNDDcJ9hlmG5Ya+hdBkZJ4VS/Hsuj3/v++LP8aP4c32V7xgQOkJH6JAlft3wd4YOhvsNiww7UyDsthD+zvjz3h9//r+Lrwf3BSB0hI7QIdH8ruEnhrsMrxh2Z1zaLWV3fH3uiq/X73LvAEJH6AgdqsWvGv7ZMNgwz3AEUbeKI/F1HBxf11/lHgOEjtAROpQrQe3/GCYa1hp8JFxW/Pg6T4yvO4l4gNAROkCL+Hqc4DU+zgAPkWxVCePvYXz8vXydexQQOkIHuBx/YhhgWGpwkWiicePvaUD8vXH/AkJH6JDz0rF/MTwQZ2QjyvSyK/4e/4WSOUDoCB3ywdfizOoZhpOIMJOcjr/fn8TfN/c9IHSEDhnh6rjT2rOG8wgvV5yPv/d/i+8DngdA6AgdUsZVhn9sF7UwZSUOEt8HU+P74iqeEYSO0BE6JJtrDcPYE4crsDO+T67lmUHoCB2hQ7JC6v9vu+hgkQBZQTMI4vvm/yMkj9AROkKH6vF7hnvo0gZt2K3unvi+4vlC6AgdoUMF9sb/l+E1VuNQxlX7a/F9xl47QkfoCB3K0Lmti2ETwoEKsim+7+hMh9AROkKHVvJbhpFkqkMCMuT1Pvw2zyRCR+gIHZrHHxgeMtQhE0gQdfF9+Qc8owgdoSN0aJw/Njxj8JAHJBgvvk//mGcWoSN0hA4X8qeGWe04lhTSl0A3K75/eY4ROkJH6LnmDw0zyViHDIh9Znw/81wjdISO0HPF9wzTCK1DBkPx0+L7m+ccoSN0hJ5pvmkYbygw+UOGKcT3+Td55hE6QkfoWeMaw22GE0z2kCNOxPf9NcwBCB2hI/QscJ1hB5M75Jgd8XPAfIDQETpCTyX/zfAWkznAZ7wVPxfMDwgdoSP01OyTTyDhDeCyiXMT2F9H6AgdoSeddobDTNoAV+Rw/LwwbyB0hI7QE1dPTngdoGVheOrXETpCR+hV56uGoZShAbS6zE2fo6uZUxA6Qkfo1eAvDR8xGQO0GR/FzxXzC0JH6GkWeoqu69cM95D0BlC2pDl9vr6W1rn3r/++T6tgrkXoCL0y1/QvDJuYdFNEpxq5vlOtXN9RqYupjf6Z+Xf679t1ruE6JQ99zv4izXMwQkfoCD2Z11L3yu80lJho0ybyOvlZB6VwaS4rea5hAijFz91X8yR1hI7QEXr5rqNm4K5mck2hyDs2IvLLUndpybOKryb6/H0/L1JH6AgdoZfnGt5sOM+E2lCW9dSHsS+i0+cSrFhIu/536tgakReatopnJV8tavR5zIPUETpCR+hte+1+zTA7f5NmTSPSrhdlXQtXu3VfEH67Fkmx4e9YWz6JN3cl37EKLzL5RJ/LX8uy2BE6QkfobXfd/tqwOx8r7dovJIw1X9qtE+IXhH+B9Gsv+h2r8XuW43Mh/Faiz+dfZ1XqCB2hI/S2uWY9DW4m5f0FGRYgAeK33wn79C1Bn9OeCB2hI3SEfvG1+obhhUytvBO9ioVLCf7zbQn255vBi/r8ZknsCB2hI/SWX6c/NmxNu7yvR97ZokHOAXK/Ivr8/klWpI7QETpCb9k1+onhXBomLVbeyB25N4o+xz/JgtQROkJH6M27NlcZRhjCxEvcTOTsecMXSug+23dH5g0I4+f6y2mWOkJH6Ai96dflPxteSXLp2OcdzhAYNE3urNwv4JU076sjdISO0Jt2Tb6X2BPSWI0Dcm/rk9u+x9yN0BF6BoVu/o6/NRxC5JB1LsiWz7fUD+tzz9yN0BF6hoRufv5PDQVEDrldtee3xl2f++uYuxE6Qs+A0ONmMX6ykt0QOVRh1Z7fcLw+/72ZuxE6Qk+p0ONM9vsTuSqn5AyquWrPr9jH67yA0BE6Qk/RTWZ+3tWGWckrQUPkkDCx5y8Ur/PCNQgdoSP0FNxk5md93fB60srQCLFDckPxuZP6Ap0nEDpCR+gJvsnMz/mmYXnyQuyIA5LeRz53YfgVht9A6AgdoSfwJjM/49tJqjEnxA6E4RPPBsNvI3SEjtATdJOZP/87hi1ksQMQhm8mOm/8DkJH6Ag9ATeZ+bO/a/g0UTInix0yciBMTsLwOn9ci9AROkKv4k1m/tx/MexG5gBlrl/Pfhh+T1KkjtAReu6EHq/MkTlARZLmchGG32H4LkJH6Ai9gjdZfMjKDmQOQBi+DHvq30boCB2hV+AmM//td5K1Z15DAhwQhs8WHxu+hdAROkIv401m/rvfMmxE5gBkw5eZDwy/jtAROkIvw02mD5dhdaI6wCFzYH89y0e1Lq9GRzmEjtAzLfS4nevSRPVmpwMcQB7215cYfgWhI3SE3gY3mfl3XzG8mrjjT0mCA2hkfz1TUtf55ysIHaEj9NYL/ZGknZrGvjlA7sLwjyB0hI7QW3GTmX8+NFkPNfvmADk+e30EQkfoCL0FN5n5Z92T9kCzbw6Q+2z47ggdoSP0Ztxk5v//oaFEqB2AI1oThm/4F4SO0BF6E24y87//3HA2UQ8xR6ECcETr5+j89OcIHaEj9EZusvhM852E2gEIwyecfeVqEYvQEXrqhW64xvB+4mROiRoAteuXZqXOWwgdoSP0LzI9cQ8s++YArNYbZzpCR+gI/UJ6JvFhJdQOQNJcE+iF0BE6Qo/4n0nLaCfUDsBqvRno/PU/ETpCz7vQv2s4RqgdAL6wt56uTHidx76L0BF6XoWuSXArCLUDQEZW6yvaIkkOoSP0NAp9UiJlTqgdIIF166mR+hSEjtDzJvSfJVPmhNoBSJhrNT9D6Ag9L0L//cR1giPUDkAIvm07yf0+QkfoWRe67pt/QKgdADKeMPdBS/fTETpCT4vQ70/kw0evdoCUrdZTEYK/H6Ej9KwK/V8NIaF2AMhJCF7nu39F6Ag9a0L/luEgiXAAkLMs+MM6/yF0hJ4loc9J6gNHqB0gI1nwyd1Xn4PQEXpWhH5TYmWuq3MS4QDYVy8/NyN0hJ52oX8nqSVq+jbP6hyAffUKlrJ9D6Ej9DQLfV5yV+ckwgEg9YqyEKEj9LQK/WfJTVRhdQ6Q/WS5REq9PUJH6GkT+rcSeYoaq3MApJ7w0DtCR+hJE/rTiV2d00QGgLK26jIPoSP0tAj9X5PcvYkmMgBIPQFch9ARetKF/g3DnkSXqbE6B0Dq1Ucbbf0aQkfoSRb6FFbnAMCeepN4CKEj9KQK/S8MfrIT4VidAyD1xEhd58u/ROgIPWlCv8qwikQ4AKBOvVnovHkVQkfoSRL6LYkOtVOmBgDJlfotCB2hJ0Xo3zQcJREOANIm9YT0fj+u8yhCR+hJEPoEEuEAAKm3igkIHaFXW+jfN5RIhAMApN4qdB79PkJH6NUU+lxC7XmdBAtyY7eCdLqtILcNdmTQSFeGjnHl7vGujHuwKPc/UJS77nWlQy8n99fqlh4FGTHWlUlTi5b7phRl5P2uvWa973Cka9+CtL81uqbcW7k+enUuQkfo1RL6PxFqzz7tOhXkhi5GSreqvB3pdrsjvQY5cvswxwpbBfXcyyVZtMST5at9+XizL/sOBJblq3y58x5XftElv9fvF50LMnCEI+9/4MvxE4EcPxnIrj2BrN/gyxtLPZk5pyQPP1GUeye50v8uxwq+R3/HXuv2Pc1LU9foO0D2FZJ656pL/Z8QOkKvtNC1TG01ofbsy6j9rUbgRjKjxhXlkSdK8uI8T95e7suHG33Zuj2Q3fsCOXwklBOnQjlzVqSmVqRYFHENe/eH9s+ooNrlVEj6AjT1yaKReCieJxbHETlfI/aaHTLXbq95+dm+K7DX9L2Vvry60JNpT5dkzMSieXGKohw3dCHSkROpr47nV4SO0Csm9OsItWcvhK6r8FsHOjJwuCsj7nNl4iNFmf5sSZ5/pSRvvu3Jmg8j8Zw0InKLoQShNDrOnA3tKnT0eFd+3jmf13Xw3Y4sXebJydONXyy9lnpNT5trptENXcEvfc+Tl18ryZOzSjJlWlFGT3BlyGhX+gwxK/je0cqdezeTUr8OoSP0Sgn9K4bNyT3nnFB7U+R9Q9eCWfkVpEtfx0q831DHrAhdmfFcSRa+5cua9b4cOBRIwQnNijuUUsmsMH0R3xAEIuEVZK5DV+n7DwYy59WS3WvPk4D0Gt/cvSAPPl6UI8cCc/2ufL30mip6fT3fXHPPXHtz3R03ND8jlE+2BvLuCt++YOlWx8DhjvQcFG2D/LJnQW7qVsjti1PGpL7F8FWEjtArIfT2NJBJu8wds8pzZcLDRXnm+Wj1vc6sCD/dERiJh3L8pMi581HovDVDxeS4Ims/8mXUOFc69M5P2FhlrqvpVxd55qWoaS9AjY2SJ1JbJ3L6jMiRo6Hdh9cQ/dJlRvBzSzYRceAIVzr3cZB6NqTeEaEj9HIL/ZqknqZGqP3S6OR+c4+C9OhfkMGjXLsvq6vGOfNKsnylJ5u2+nYFqatAP5CyDF3p66pSE77yct079y3IEzNLsmGTb6MabT1siN58ZydOBvLpzkDeM9/l3AUleWp2yb6oDbvXtdUHmliX56TEFEt9XzzfInSEXjahd01uqB2ZXxxO79rPsZnTuvc6/dmiLHnXky2fBjYZS8Ponmck7oefhdDD8vhcHCeUTVt8W9KmpW55SCYcNMKRVWt9OXc+bPXqvLEQvYpdXxi8ODxfWxcl2b2/xpfnXi7K2Cmu3GFe5HoOdKRj7yhywAo+NVLvitARermErm+LeylRS0c4feLDUTmZlpLpCk5XyadOh1JXF2VaV3LoC4PuAT/7Qsm8YLiZ30tvmNlejtX5lSSvuQtnzomtPtixO5B1GwJZuMSXhx4v2m0AwvItlXo2VukIHaEndnWe51B7/Wq8S9+C3T+9IJy+ypNt2wObNR0EUvWhK9VlK30Z/1D2M96bmtleKcHXFUQOHQlk9TpPXnsjCsvf90DR/J6uTYjUZDoy5pvwvHWqitS7IXSE3tYy/2oiV+c5PBZVJ16dgDWkrg1edMX10PSibeyy+QvhdClbuLe5QxPsNErwonnZ0IzsiwWiLycaqtaQvIaFtXOafkYNE3cxK0rdPtCVb/f+jtw6IMru1j35enS/WMu5+t4ZZew3Rp87L/yzioak9ecqWjevf5f+nbqa1d9Bfxf9nfR3099R96Uv9Rmam9leKanbzHkvqlaoqQ1l+87AJtQ9Nbsow8dGpXBa8aD5FqzeL0dVTmjTefdqhI7QM388ah5D7dpkRFfjWrY0b6EnH26MOo+dOFmdcHpzM961Y5rWud/S48IEOZWkSrTfUFeG3uPKmElFs5ov2jCx1mHPfNGTF+Z68srrnrz+pieL3/VlxWrf/jxl5RrfZtNv+MSXzduCRvnIXDP97+v/7LJVvrz1ti8LFpuf/ZYml3m2gc6z5u987OmSPPBY0WaRa3OdO80L1O13udJjgCacORd0cGvrzPZyfhf6+506rWWFoWzcFNjrOcOs3IeZa69ib0dnusv3fa/C8aoIHaG3FV9OYt25DbXnoBucrgJ1hagrT221+rBZjatwVqz2ZM++qE7cDyQ1Y/feQGbN0TIr19a9a/MaXdE+9nTRtkF9aX7JSlVD1stWejZM/LERzhYjYl1V6mfWlf6xE6GcOxfK+fMRNTWhvRZau33FEjCzcq7/c8rZs6EcPRbKwcOBZe/+wO49q/y1wcuqtZ7NItfyPn2Z0GYvs16KGr7oC4dmlY+dXLSf5YW55ctsL4vcQ7EVDkePBbJxcyALzLV/4tmSfaHSe04jE7SdrXrofXM8DyN0hN5qfkqovQoHn3QtSKc+UQhZV6ovvVqSVWZVqcLRciUNn5Y7O70cQ6Wr+7kqS20de/R4ILW1of1MulWgmdoaFlYxe97nWwd+g6Y29dQ3YrmYpjZwaUjDn6vU/33a4KX+9yjFv5v+jvq7amc3DV9r+9adu6MXjkPm+ylnZns5Q/L6efVzaSdArYbQhkC6167bGV3Nql07CRKOr9oq/TqEjtDbglWE2iufqa49vB95siRvvePLth2BzRI/e671zV6SEO7Vz6DbA5qspVsEaZLfpWRYLEX92QuF6LOlZXV+uaEdAfX70QY2+uKl3emeecGzWw4ajkfqVdlLX4XQEXpr+QFZ7ZVtAqMJY9pHXRuxaO90m1zlhcJgVONlxXXFljtu2hrIwsW+PDCtmLs2vgnKeP8BQkforeEFGshUDt0rHzbGlbeXefZgE93rbWrfdAajXFJXNJJyvia0nQVH3R+dAJfnvfUqhd1fQOgIvaVca/Do1V45NHt9zque7NwTpD5sy8je0JdLLYt8ab4nQ+8p2jLD3K7SO1Yl7O7F8zJCR+jNZhyh9splsnfuU5CHnyjaE7XOnmNJzkjm0NJDDb8//mxJuvXLd+i9SmH3cQgdoTeXXzGcIRGucsds3jPRtd3dHIcQOyPZIXiVutbxa22+5nzkNfRepbD76Xh+RugIvcl0SFqZWlZX59pQpeegKNR+6HAy2rQyGI2G3o3UtW7/neW+9L3TlRu6OLkNu7frVJVDWzogdITeHNayd14ZtM2oNiRZ+6Fva7RZnTPSsErX7Hdt8jNlWtH2g89rZ7kqhd3XInSE3lT+hrrzyqAHq2i3NG1heuxEgMwZqZK6NtVZ8YFvX0i1z30eQ+9VOoVN4nkaoSP0K/J48oRel8ma89sGu/L8XE+On4iakzAYqQq9a9b7SZH5izzbn19fUHMZdq/OWenTETpCvxL/2XCe2vPKrM61B7j2Ci8hc0ZKh9anaw94PcRG+yjkM+xeFaHrPP0NhI7QG6N9Evu2Zy0hTmXec6BrjzzVvt8kwjHSvErXMst15sV00EjHnkFA2L1itEfoCL0xliH08tP7DlemzfBk81YayDAysEo39/Dho6E8MbMk/Ya5uev1XqXyNWU5Qkfol+P7hpBjUiuQCDfJlVVrozPMGYwsjNq60Nam6zaS9lXgsJaKEMbzNkJH6F9gZOJW558JPTsd4bTER8/Mrq0VQu2MzAzf3Mt6/sCrizx75O8vulC+ViFGInSEfil2JFPotRlqIuPY7lpac17ykAAjW0MrNT7ZEsqTszzpdJtD2L0y7EDoCP1i/jaJMs+S0G+0iXCOvDy/JIePBqzOGZkb9Ye3aOj9jpFOvkLv1Stfk3j+RugI/TMmJ1boGWkqozJ/8PGiWcH4yJyRaakfO6EJckUbes/P4S1V20eXeP5G6Ajd8mXDYYReXkZPKMq6jwI5dYZEOEa2R12dHt4SyPiHirlqNlPFffTD8TyO0BH6+X9Iqsyz0CWu/mjUp2YX5fjJkCYyjMwPvccPHg7khXkluW2wk5tz06tYjy7xPI7QEfr5SckVevq7xN3QRVfnrixf7Ylb5GhURvaH3uOaIPfRRl8efapoO8jloc97FRPjJJ7HEXrOhX6V4UCShZ72pjI393Bk9hyORmXkT+oakVq+ypd+Q3NyxGr1jlOVeB6/CqHnW+h/l+Rwe9q7xHXoVZCh9xTtpMbRqIy8Cd0esbo3sKexde/v5GOVXj2hSzyfI/QcC31MovfPU9wlTvfOh4x2baONfQc4GpWRT6nrWQVL3vXsMcF5SJCrYmKccg9Cz7fQNyL0cuylFaR9T0ceeKwoW7aFdlJjMPI4tIHSvoOhPP2cnsbmSLuOJMaVkY0IPb9CvzbR4fYUt33Vwyn6DY2ayJw8RWY7I78jCKM+72+948mdo125sVseEuOqGna/FqHnU+g9ky/02lSuzm/p4ciUaUX5cKNvs30JtzPyPPTM9E93BvLcyyXp2jfjGe/VTYxTeiH0fAp9AUIvR7/2gvQc5MrcBZ4cPR7aFQqDwV56KOs/DqT/XdnPeK9yYtwChJ4/of8nQ23ihZ7CLnFd+zpy7+SirF5HZjuD8dkq3Y+azUyamv2M9yrvo9fF8ztCz5HQf5h0madR6JrZrvuE898gs53BuGCVbjifk4z3KjeYkXh+R+g5Evq9CJ3MdgajkiMvGe8JSIy7F6HnS+jr0iH0OjLbGYyMjPxkvNdVex99HULPj9C/aQgQelsnwzky+VEy2xmMRvfSc5LxXuUGM0E8zyP0HAj939Mg87QdzKKlai/MJbOdwWh0Lz0nGe9VToxT/gOh50Po41Ih9BT1cb+lR0EGmMnp3RUeme0MxpVW6TnIeE9AYtw4hJ4Poa9B6G2L7p0/83xJduwis53BuOIqXT7PeL9ngpvN89Kr32BmLULPvtC/YfBTI/SU9HG/Z2JRNnwSyJlz2JzBaMqwGe8HQpn+bCmjyXFVT4zz4/keoWdY6D9Mx/55Og5m0brzzn0K8tTsoj37mcx2BqNpQ/NMampDmbugJN1vj54lEuMqU4+O0LMj9CHpEnqyH9gbuhRk1DhX3lvpiVsks53BaM7QapCVH/gydrJr81BIjGtzhiD0bAt9fnqEnvymMjd3d2TGcyXZsy8Q32eCZjCaM/xAk+NCeWOpJz0GZC85LgGJcfMReraFfhyhtw2/MKvz7v1dWbTEk/M1rM4ZjOYOfWbqCiJbPg1k+H2u/LJnxqRe/Y5xxxF6doX+e2mReRravnbsXZDhY11Z+5GPzBmMVkj92IlQHp1RlN6DM9YOtvqZ7hLP+wg9g0L/KUJvOwaPcmT+Ik/2HwyYlRmMVgxtNKNhd81HyVYJW9Uz3ZXrEHo2hT4qXUJPdob7mPpStbMszxmM1gxNKN26PZBpM0rS/tZshd0TIPRRCD2bQn8NobfNqWpaN/vQ9KJN6HFchM5gtGYEgdgXYy1h6zXIsQcdUbrWZryG0LMp9EPpEXpyu8RpSPCOUY4sXOzZhJ6AiDuD0bp9dIlK2NZ86MuUR4vSviela23IQYSePaF/K02r8yS3fb2pmyNTHivKx5sDe3IUg8Fo/dAStl17Qnl5vidd+zoIvW35FkLPltD/IVXh9oR2idNwu5bWvDC3JEeOBazOGYw2DLufPB3K+2v8KNu9E7Xobcj/QOjZEnq39Ak9gavz7gXpO9SVZas824uacjUGo43C7mF0Ctve/YGMvN+1YfcsJMddX/1adInnf4SeIaE/mC6hJ7Nkrdvtjox7sCgbN9MWjsEoxzh5Kjqwpe+drvy8E7XobcSDCD1bQl+C0FvPgOGOvDg3avXKYDDafpyvCWXxO56MnuBmI9u9YyJq0Zcg9GwJfT9NZVrP/Q+4sm17IDU1xNoZjHIMzXbXF+bpzxblpm6UrrUR+xB6doT+NUOA0FuXDKcNL6Y/U5JTp4XsdgajjHvp586JzFvoSa87nEx0jktApnsQewChZ0Dof5aqkrUENpXRvbzbBjvyyuslKTgkwzEYZV2lF0WWr/Lk7vGu3NydxLg24s8QejaE/pN0Cb0mcUK/sWtBxj8UHcRSKjHhMhjlHBoB2/ppIM++UJJOfTIi9Orvo/8EoWdD6P1oKtPKc897OPLM8yXZdyCk9pzBqEDY/fjJUJat9OXWgVloMlOXhH30fgg9G0Kfkroa9AQJXffPO93myIK3PJuBS7idwSi/0IvFULbvCmTg8Gz0dk/APvoDCD0bQp9Hl7iWow0uBo9yZfVaX3zKzxmMikn9yLFQJk51bf+HtDeZSUDYfR5Cz4bQ11OD3nJ69Hdk8tSifLKFWDuDUclx6kwoM+eUZOCIDNSkd6x62H09Qs+G0I8h9JbT/y5Hnn+5JLv3InQGo5Lj3PlQ3nw7ynYn7N5qjiH09Av9akNIDXrL0clkzXrftqTMewhUEwJ9P5SSZyiFdp/TLUb/11KK/rln/r1uT+h/T85BfO3C6EQxL75+xVKD63aJ68e1E3EcsW2WH3y8KDd0Jdu9Dbgaoadb6N9JXw16bWKS4fQwloemF+XAoVAcN+eTq/n8x0+Esn1nIOs+8mX5Kl/eeseTBYs9eza8/u93lnuyaq0vH28K7FGYp06HlPmJ2Jebs2dFDh4OZev2QNZ8GMh7K6Prt2hJxOJ3zfVb4cvqdb7d3jlyNJS6Qr6lrtft6LHQlq/pKYfpP6yl6mH37yL0dAv9r2gq0zLamcmjSz9HZr1Uktq6/E2suqJ03dCGPY8dD4yIfHnvfV+ee7kkUx4tyujxrvS/y7XdvLTpTv9hjgy9x5X7HyjKtBlFeWl+SVZ+4MuuvYGcOKVyCnOVVKgrbMdcv7PnQvNCaF6CPvTlDSPuZ18syaSpRRlxn2vPBugzxJG+dzoyaIQjd93ryrgHXXliZlGWGMFv2uLL4aOBnDkbSsEJ7WlkeboP9bPqi+Rrb3jSc6CTicNaqhx2/yuEnm6h/xihtwxtOTlktCNvmlWU6+ZrElUZqYC37/Jtud5kI/ABRt46qXbu45jVUsF28NIwqO5tKjd0KciN3Qpyy60F6djbvAz1jUQ/bIwrjz9btE159LxrDTdnWUr62fTFRV+ENpqV9nwjo4mPmOs33JXut5vrd5tjKyc0+qPX7Bcxei31+rWPr1+PAUbyI117foB2KPxwo29frDQ0n6deCBrhWbXGl/umuHJLD05fayU/RujpFnp7usS1vDucHpW61qysSjnq3a4roqPHQ1lpJtEnZ5Vk5P1F6d4/6qnd3JBnu05RUx49ClNfCua86sn6jwOprZVMSql+RakNiDSZ69EZJRk+Nrp+N3Zt/paPCl5fjPSl6OEnSjJ/kSdbd5gV+7n89EPQl6PN2wKZMbtk+0FwWEur+CVCT7fQ+6dN6ElpKnNTN0cef6ZoV6l5OIxFBVEwq3I96eqd5b6Mf6gonftGq8fW7l2q2HVFqmLTBKdPtkRJhhrSz4qYVDzaeGjXnkBeN6vyO+9xpVPvqClKa66f/ln9DnTVPmikI8+9UpINmwIbys/DFoZ+xv2HQpunofXomRB69cLu/RF6uoU+mravLWwoc6sjc18vyenT2Q9x1u/3frTRt/vfGirX0G+7Nt6z1J+n4Xrda5+3wJPtO6Pe+GmWev0WxekzoW0+NOmRkvQa5NjVdVteP/1ZGpZXqWkIf8kyT86ezf69qddXt3/0JfC2IVkRetUOaxmN0NMt9IcQegvC7WYy7j3YtStVPfkp60OTrnS/d8ZzJek7pPw1v7oXete9RXlhrmez4bU8Kc17vEeOh7J8tW+T3XoMcMt65KeKvedAV8Y/XJTV631beZD18Lu+tOw7GNqkwZt7FNKf7W6bzFRF6A8h9HQLfWbqhJ6Atq8dezsyYmzRlmdlPYFLV+a6+lGZa6Z6uwplEutLg4aQdV9Yy7k0TyFt11pFoy9DKz7wZcq0ok0UrIRstAKjc5+CTH2yaMvcdKWe5fC73haa1zFpapRYmP7ytarto89G6OkW+kL6uDefnoMcefiJomz5NMi0zHV1uXmbL9OfKdmJstLNO/Tvu2OkK4vfjcqz0hQ+rs850OunIXBNXqukaPTFS6WuK/WlyzybVZ/ll0/d0tCOjXq/tKN8raUsROjpFvpyhN587hgV7fHuP5hdoWui3+mzYj+n1pNXq7Vmx166J1yyR2VqhnganKS/o9aE79wTyNPPlaTPkPKG2a8UftcKgk93BpluRHO+RuTNt325e3zRJgnSNa5FLEfo6Rb6hvQJvfoP26hx2W/3qlnSm7YEts65misefZHQ1e1jTxfl0JEgFTkLuj1w+kxgexT0HhwlwFWzAZKeGa7d5rSBjZ/Rd9C6OpE1H/oy4eFsCD3qGldxoW9A6OkW+naE3ny0ZEsPY6mry6bQNbSt++ZaQqbNYqrela9TtJ+uTWyOJTzJS383DW+vjPfNVebV3tPVksCR97vy3vtRE6QsrtJ1e0gjZk/MLFX1BSrl++g7EHq6hb4PoTe/f7s2BDl5SjJZf66TvbZiff1NT/oOdW0iVxImN20aonvRWz9N9ipd7wnNuH5yZlQRkIT9XI1yaA6EtpXduz+b/fP1vj17TmxzIu1WyD56i9iH0NMt9JMIvXlC1/DvrDmlzO5HqpDqT7C6qbuToMmtYOvfl77nyfETyU2Qq6kNbffAO0cnKzlL28jeO9mVd1Z49nfM4tDowxtLPek31MlG2L3y9einEHq6hX4WoTdvpTPgLseuXrN4upotU3NEXn/LsweDJO2M6U63FeTh6UX5YL2X2OiIhn1nv1Syh9Ik6drpy4W+EGkuQlZr0+v7umveRyb6uld+H/0sQkfouRG6rnKivUhfihkMW6okT50WeWpWydbaJy1sqdsdA0e48sprnhScZGa8f7I1kHsnFRPXV1wjHHrE6PD7XFtumcUIk1YWbNwc2DLLjpnp647QEXrThV6bLqFX9yx0rYue+Igr6z/2M7kPWVsX9RrXpL8kNufQjG09zEUbpmiFQZJW6SpH/X2Wr/Zsn4JK1+w3Veqa8a516UeOZa8trDbP2bE7kBfmluzWGIlxzaaA0NMtdEHozVkhOvL08yXZdyDIZOetY8dDG30YPtZNcKJQQcZOLsr2nYEUCskK9x47GcrcBaVEtx/VZjMzXyzK1u2BXdFmSujmBeXA4dCW6OlBPxzU0iIQOkLPh9Bv0QNZFni2nWcW9yC1FG/2y1EjmSRPciPuc23N8bnzybl2ugWwbUcgT80uJXJ1Xk+HXgWb8KjH1GatSiPKdA/tvaEH4GTnoBaEjtARepvzy16ObRbiFrMp9I1bfJn4sJv41Y2293zLfA9JauyjR6PqGfGTpxar0hWuqWgZ4ujxrixflb1tI30mNbdl+65A+g7NSE93hI7QEXrbo5N0j/6ubUEaZLRB3LoNvj2xSs/WTvIkp9naeu734SPJ+SI0avPm257cM8FNXHXABfdxl4L0vdORRUu9TJ4UqFI/cCiUIXe7iY6UJLh0DaGTFFchoXesntDb93Rk8Kgo1JvVoSdz9R+WnGYyl6NHf0emP1uU/YeSI/RTp0N5ab5n689/nuCmJvbQlr6OvLrQy+zRv3rymiZ2djWfs10GjlKtYE93kuKEsrVcCL1rP0fum1KUjzdlV+gahu3e3010yDhK7HJsW9Xd+5KTpq213XoQi65+k96lTMv/tKOa62bzPtatmCdmFlPxXSRM6JStIfR8CL3PYMdOEnpqVVbHuyt86dAr+clE2jRkzCTXliglSegz7MlqCL3a4/TZUObMK9mw+887pz3sXtHmMgg95UI/gdCbxsDhrpkkPNmzL9tC1+YjSZ/kdPtDm7fo8aQIHaFfPPRwHD3IZ+R9xcRHmxLWXOYEQudwllwIXfdG31jiyaHDrNCrX3rl2D3SXQkTuvYoIORe/aG96rVnvb70ZeJs9MoJncNZUi70TQi9adw93pV1H/k2+Yk99OrvoT/wWDFR0ZITJ0N57uWSDByRfKHfnHGha8MhrdiYNDUrQq9Yc5nNCD3dQl+P0JuGdifbvDWU8+ezK/S0ZLl3u92RR58qyr4DyfkuTp8JZd5Cz5b9JXnf9uedoyqB197Ibpa71qLv2BXYY45v7IrQm8GHCD3dQl+O0JvGuAc1xBtKbV1mfS7rzapGu7AlvQ6958CoBe+BQ8mqQ3/rbU/GTEy20LU2WxvzLHnXy+QBQzq0LbOWrmnVwY3dEHozWI7Q0y30hQi9aTz0eFHOnov6RWd1bNnmy8Pmc6owkzzBDTJCenOpJycS1ilOj+6c/GjCO8X1KNjmNytWZ/OAIR3aXKbOvHjrIS03dc+A0CvXz30hQk+30GfSKe7Kh4HopDB9ZilRh4GUY2gv9+deopd7S4bjiuzcHcozzye7l7sei/voUyXZsCl7h7NcEHYvim2eo0100l6LXkGhz0bo6Rb6Qwj9ykLv1MeRmXNK9gCOLI/DRwMbih02JrlC18n5vgeKtgY9Sd+Hhnn1YJDX3/RsnXxS+4hrg6SXXyvJrr3ZPDGwodAXLPak9x1O6mvRKyj0hxB6uoU+GqFfWSA6Kegk6GRc6I4Tyv6DgUx8JJnnoevErC9XT80qSk1Nss7z1jCvCvL9D/xEn4fee7BjqzXOncveeegXJ8bpAT4DhpvvokvahV6xA1pGI/R0C71/uoReUxWJaAj6tTezW+ZTP/TQmfM1YhPONDSbtFClbn0MHOHabPKk7v9+sjWw9c+dbnMSJ3NtGjTyfld27w0zu39eP/TzLVvly93jXJs3gNCbRH+Enm6ht0+f0OsqLnQ9lOWNpdkXehjvBS9a4skdI53EJXd16F2QiVOLsuIDL7FneR84FNh6dD0RLklRDn0509/psaeLtglOGGZc6Ob+WLM+qkVvf2sWhF6R5jK/ROjpFvqPU3WEqgq9Y2WFro0pRplVzXvvZ7du9+K9YO3A9uSsktzSw0lcuFj3+I8dDxIbLi44oT1XXs8cT1KGtd7H90525d0Vnu2klvWhL3wfbQzkkSeK0qEXB7Q0kR8j9HQL/a8Q+pXrdseaiXDVWj/zYcr6vWANuy9+x5d+Q5PTZEZD2Lq3v/XTINEvVrptceRYKM++GFULJGHbQn8HzT3Quuy9+8Nc3Meawf/JlkCmP1NMfF+FBAn9rxB6uoX+nVQJvXONDT9VWujjH4ravuZhIqyX+qatvjz4eFF6Dap+6FiFNGiUY7OWjyU8XKy/mnYTXLnGt0e8amOTal+/m8zvMOxeV95e7tstlTDMh9C3mJe/Z57XfAZOXGsi30Xo6Rb61YYwXc1lKiv0G7s5Nmy3eZuf2H3bcgwtwdq0NZBJZlWsq/RqSUlzGLTUSvd+Dx0JUrHtofu3p88E8uY7nt0mqGa3snYdoyqN5St9u3ee5cz2L2wd7Q3l5dc86dLXSbnQK3ZAyzUIPd1CV44i9MYyqx15/Nmi7Q2d5brdS+1BnjkrsnCxL3eOrt4hF3oQyyNPlOSDdfHqMiXJhbpC1ONdn7ZHqlbnwBuNbPQc6MoDj5Vk/8EwNxEmK3Tz4rJnf9RfX18Iaf96RY7WOwGhp1voa2j/2rjQn5pdsid75UnoGpZVqeuLjJaxde9f+dpqXdkOvce1h8acTVndtF6/QiGULdsCK1Q9EKWS++n6d+nL0ISHi/L2Mt9uA+Qh1N5Q6Hp4jx5C0y0LQi9/c5m1CD0bQn8ZoTd21KQjM1+MDgLxA8nVUAG4biibt6rUPek/rDJS0vC+rmj1DPo339as9jCVL1P6AqIZ5Vu3BzJzThT6rUSkQ8PsnfsUbIvXD9YFcvZsmKuX0fprf/RYKO8s96XHAITeBF5G6NkQ+iS6xTV2mIUjs14qyaEj+dl/vHicMavjT7bo6VWe9L2zvKeJ/bxTlNF+94SivPK6Z0PFTorr//UlsKZOZOPmQKY9XbLX76Yy5iTUh9knPGxkvj6Q4yfztTJv+DJ66nSUnJj0w4YS0lxmEkLPhtD70i2ucaFro5AjR/MrdP3cKtWPNvry+DMlW872y56FNl2tq+A0pN/VrGJHT9BGPr7d5tCwf5qFFEp9KWBoD0SZalbNtw9zbLOTtrx++rP07O9bjbwmP1qyYXZdmef1ntVrrts0az7ybaUGQr8i/RB6NoT+E7rFXR5trjJvgWfPuw5Cye2we8JOaCMVH34clbRpCFkl3Boxqcj1z6vgBgx3bUMb3Xc+fSaUYjE7q0tdqdfWhrLbvKQsfteT+6a4NllLox2tWa1fHzeN6XhbQYaMdm1p36c7Azl3Pn9h9ovvV73eGz4JbJZ/2oX+s/J3i/sJQs+G0P8sdc1lKin0Wx2Z/4aXu6Siyw1dMZ8/L7L+40Bmv1SScQ8WWxxG1n1yfSnQ8831BUETmLQZSG2dZHJlqfePRjr0pei9lVG0Y/jYok04vLEFCYd6/Tr0cmTYmKI8OqMki5Z6su9gKHUFyf29Wn8mum51aOlgJoRe3tK1P0Po2RD61wwB3eIuL3QVjZ7uhdCjiVIpeaGtC9fTxbSsb8jdrt2rVEFrq009EEMlryt4XUFqxrrWs2uoXruWdbvdkX7DHLn/gaJ9MVi3wZeTp0PzwpDt62xPZQuiELy+vOi9pf3G7zAvNbcOcKTzbY607xldK71mev0UbQ6j11T/nXY+06z524e5tsWs5hrozzpzLv1bFAj98s1lyij0IPYAQs+A0JX9dIu7NO2N0PVgFsdF6JdardfWhXLiVCjbdviyzKw6X5pfso14xkxyZcR9rj3kpe+djg0H6974A48V5ZnnS/L6W55Z5fv2uNZTZ3RVma8QcZSXENp9Xj2HftuOwFw/z1ZUqOBV1HouvV6/waMcs5J3ZcxE1/67J2cWZcl7KnHfvlTpdpD+LH1R4BbNrtDL2Fxmf0MfIPT0C30JzWUujR45qZNnnvcjmzI0lKwZ1bv2hPZQDF25a1hZr52Ggpcu82XFat+uxLWMS7PXz52PGrAgn+j6nTDXb5u5Nms+DGT5Kt+WXOn1U95937fXdM2Hvu3gp/3iCa03PrSRjvZR0BfK9Au9rN3iliD0bAn9QYR+eaHrxMrEeWUp6apTX3w0bF4qRWhimyX+/zVU7/nRalyTDLmsF14/vTal+PoVL3f9vCh7nXvyytdUXxz7DUXoV+BBhJ4toXenuczlhf7uCpaRDEYahzaEQuhXpBtCz5bQ/wGhI3QGA6HnUuj/A6FnS+jfolscQmcwEHouhf4thJ4toSuHETpCZzAQeq5OXDt0sQsQejaE/jpCR+gMBkLPldBfR+jZFPoo+rkjdAYDoedK6KMQejaFfh1CR+gMBkLP1R76dQg9m0L/PQ5oQegMBkLPldB/D6FnU+jKcVboCJ3BQOi5EPrxS3kAoWdH6PNZodMpjsHIwqBT3BWZj9CzLfQhCP2iw1mM0N9825NikQmSwUjTyFYv97KctjYEoWdb6D9E6JyHzmBkYXWeufPQO7e50H+I0LMt9G8YfISO0BmMtAu91gj9403ZEPr1VuhtOo/68XyP0DMsdGUNQkfoDEbahX7OPLN6XG+vQVkQepvXoK+9nAMQeraEPg6hXyj0Vxd6cvYcQmcw0iT002dDWb0uI0Jv+6Yy4xB6PoT+H4nfR6+k0Hs48tJ8T06eis6gZjAYyR/6rJ44Gcqylb7cOtBJfUJcGTLc/wOh50Po3zQECD3iZiP0514uyZGjCJ3BSJPQj58I5b33MyD0jm2e4a7z+28g9HwIXVmXeKF3rJDQuzvyzAslW8/qI3QGIzVCP3oslLeXGaEPcEiIu5D1jc3/CD17Qr8XoUfc1M2Rx54uyqc7ffFoGMdgpGL45lndeyC0Ca3d+jnsn1/IvQg9X0JPeD16ZYX+6FNF2bodoTMYaRL6zt2hzHm1JF36OuyfN6H+HKFnV+j/yVCH0COhP/xEUTZtNUL3sj0BnjsvcuhIaBMAHQcpZOr7DaJGK6dOh3LsRCjnayTTW0h6P3+6M5DZLxmh93FSHm5vU6HXxfM7Qs+R0JUFiS5dq5DQb+hakPEPubLuI9+2ksza0PIejTycORvKWvMZZ75YksXveLJ7byAFJzQvMVEyoP53lO2l77vV765YCuXs2UC2bA9kyXuezF9Ukg8/9uXMucB+91n8XvVzbd4WyIznitLpNurPG7DwSnM/Qs+m0Hsh9EjoYya6svIDz0yM2Zv4ampC2bk7kHkLPBk93pXedzhyxyhXJj5ctHJfvtqTfQcC26Qjiy80WR2BkbTjhva7W77Kk6dml+S+KUUZbL7bAXc5MnaKKy/OK8nBw4G4bvakrtE07RKn+S8dehNub0BvhJ5PoV+L0I3QuxTk7nGuLFuZPaHXFUS2mlXby695MvQe17y8OOa6Rp/7xm4F6d7fkQmPFOXVRZ68v8aXT3cEtrZXQ7dZ3n5I5Wo8XpXqd3P8pMiuPYFdhet3N8l8h137OeZeduJVX1SOOWCEK2+97cve/aEUnGxJXe/P9R8H8tDjRui9WJ034FqEnk+hKxuTK/TaijxUv+hckKFjXBuGritkpxZd9xh37wvkuVdK9jSqW3oUPpN5/aT/C/Myo5NhDyN2/W8mP1qURUs8G8rUfXYN5TYMyTOqE1LX70DvzZOnAtlmXtAWvOXZ72rAcMd+d/od6n3c8Ptt16lgv/Mhd7s2OqO5EyUvO9fFcUIbmbh3sms/J6tzy8amzPsIPbtCvzfvQteJr3Ofgp0gV631zQo1G0avr9PVo2HvnRSt4JpyHQaaVd2YiUWb+T/39ZKsWO2ZFV60347UKxtSP18T2mu/ao0nr7xWkkeeLJrv0pWBw127b6zfWWMvqp37ODLuwaJtvnL2fHb6LNTVhfLBel+mmuvRo39Bft6Z2vOYMQg930L/Qd6FXo/uLT/yZMlOfoePhvZ89DSv1u3xkgWR7bsCeWOpLw88VpTbh7lW7Bpub3yyic6JH2DEMWlq0a7wNLy7c09gV3pnzoq4xUg6jLZ7AdOw+JkzUSWCbn/oC6Zee/3u9EVL2xS369j4S9mNXR3p3t+VwXdH392bccg97ZEnuyp3o+0G3TufNqMk/Ya68vNOrM4b8HcIPd9Cv8pwIJkHtFRW6JocpyuaQSMdeX5uSQ4cCqS2Nt0ToYbdNTR5+kxo91zfXBqFam8b7Nhwuwrg+o6NyKHb5yH5wXc7thpg1pyiWbX7NhlLV5D1YXn9uwjNNy+UrtdMr51eQ01e3L4zsC+Us18qyqhxrn0B02vfsbeWVxYuK/PrO0SrVA0964vpo0Z2by/37Xeu373rpju6otdKEwA1WqHbDWMnu9LtdvNi2pW98wYciOdzhJ5joSuTEfqFYu831JGHp5fkrbc92X8wsBNv2gWiGeya8KZJcu+u8OTJWUW5a6wrnZtY8lO/367CGDbGlQkPF2X6syV5ab5GNTzZsi2QI8cCKw9W7o2H0ktetB++aWsgy83L0byFJZn2dEnGTina5EU93/um7o2H1BuG1jvd5sg9E4syc05J3jXfxY5dgZw6E9q/J+0vWPVbR6vX+nZVrpGHX/a6/ItoGvq2l2l1Prmpcz5Cz7bQ/wGhf3GS7NDLsXvJCxd7smtvKGfPSerF3jAUr8lVemyshmWbGopviK4IO/R2bNhT92mffbFk9+s/3OjLjt2BHDgUyrHjoZw5F4WS83jwjcpbt27OnYsOEtGoj8r2402+7UH+zPMlmfhISQaNvHI4vSmh9Z17wszkOtRvQew7EMo7y3155ImSXZXXZ/JTd/4F/gGhI3Tly4bDCP2Lk2b7WwsyaIRjJpOiXSFocxYtl0n7hKkvJjrxnzwd1ag3DMVrhKI+HN80sRTklz0L9oVAT70aODxKxJr+bNG8MJRk5Qe+DSWfORvY8L+Gl0sapvc/D9OnNVRf34zns/C5H62K9TNqiFi3JDTCs2a9Lwve9GTG7KINF+u2jp7h3bVvlKHeWDi9YV6DXm99kWp/mdC6/p2a+Jbm29M2QjLXUPsi6H2j9fUaEdLtsIsz+Vmdf8aReB5H6Ag9mWH36+0RqtV/CFVYeviD1qrPmVeSDZ+YyfN0NmLKlwrFv/BKlE2tLzI392j+BKrSifbdC9J/mCPD7nVtZvZD06NV/Cuvl+StdzxZ86FvowSHDgdxq9L0rSz12ulL3gEjbU1iW7/Bl6XvebY6YMZzJfsiqC83w8e69kXn1oHRS2Jzs7L1O9B99P53OXarQ4/7fS9jofX6USiE5hnz7VaONsrRk9Ru7l5I9aq8AqvzB5oz3yP07Av9bxF64xOqNmXRTOMnZ5bsvmcWMuEvFYo/eCiUDzcG8vxcz+7LDrgrSszSRiWtWR3pql9Dpv3Nz7t7XNGGUJ97yZOFb3my+F3fZnSr4DVisGdfFLLXa6yyP3Um6kNfUxv9jnrdNVLSltc+iFvkanMhDfXW1IjN5j99JnrhOXIstL/T3gOBXRFrH3HNtl620pfX3/DkeSNZ3eMdM6loqwM69YmiHS263+ItjV/2dKTHgKjaQF8MZs0x994qX/bsD220IysS1+9Rv1e9xvrC/OSskn3W0liO1miZWnlW5xLP3wgdoV/AjsQdodqhLlFS19CohknrM+E1nKqZ8H7cLzvt86t+DrcY2s904lQom7f5dl9cRaW1z7rH3lqp68+45dYokcuG6Y2weg5ybCKihlZ1NT9lWtFO6hoteO2Nkryz3LNh648/ibrZ6V708ROBnD0X2BWdJuJZis0k/nO6/XCuJkpU04iBrnxVLO9/4Mu7K3xZtNizbVTrV933TXHjVXfUSlc/g0ZxOpvP1L5n9Bl/3orwsEY5OvaOroduXWh/dk061JcbDUXbxMMg/febPjPRoTJRmd7L8z0ZeX+UwX5Tt+zIvExHpNazo7lzPULPh9BH5vVM9JZkwvcZ4sjER4pWOCoA7eSVtdOtVBy6OtVV8xtLPRn/UNGu1ssXBYlC0trgRiWp11jDzNrtbMRY1257jDHC199DE8EeMOLXUL6eljf1qaLdb33mhaahcp42I/qzD5ufobXekx4t2p89dnJUNqZCHTLaiHuEI33N79JzoO57RzkDKu12ZaqB1t7k08zn0RcZvfaa6+BkrB97fS96fXYWLi7ZrQRNsGzJNk8OT1RryEiEjtAvxfcNYR6PUG1NH/i77nXlJbOy2LApkINHQhs6zOLQEPMTM0tWskn8Luqz7vVs7KagK+AbElrHrFGgOfM8e953Fo9A1X70R46GdstizquejDCr8qzsk1ewiYzE8/UfIXSEfjmW5/GAltasKrWZh2aH3z3BNZNTSbbt8G0I18/QsZUa3tVWm3feE9UAJ/X7qM8CbxKdkrsS1FWqRiK0gY925MvCfWTD63F1xdZP9cCgkowyItdsf43KZG1VXoFEOInn6y8hdIR+Odrnuf1ra1aHui/cd6gj47Sb2ksl2zQkCzXBKvPDRwO7h6ylQ1lKVEryi0m32wv2PjpwOEj9sbb1fem1DE1fenVbo9+wKHu9XacMf5cdy7o6V36J0BF6Y3zDcJ5a9FaUuXUryK0DXds0REOKBw9rSVY6m9LUZx+vXhfYLOsbuzkIt4LbOVq2tWyVL7V16RS5nu52riZqDrP2Q30p9IzI3VZXTLA6t9TE8zVCR+iNMj1ZpWt1KXuIo8lY92k1sUpLjfRgE238oQ1H/BQ1UdHSKH0h0SQybRqT6dVUAu+j7rc7NlFPy/fSUh5Zn7muVQTasnXdBl+eeDaqxdeESu3rkIv7qLxlahLP019C6Aj9SvwN++htgz0sY7BjS3E0A3vpMk92701PKP7wkUDeetuXkfe5iU0gyzJa5tfnTse2PlU5Jl3q9aF1PZVPS/0efzraJ7d9DLrn7IWsU22558a/QegIvamsZR+9bdHa2jGTi/LKa14qQvH6e+nvOWVayZaQIdjqoNn4jz5Vko82BrbpTRpC61r1oStyjVK165jH6EpZy9Qknp+/hNARelPpQNi97Q980fplDaMmPRSvK0FtYKIH0+jqSleKyLV6942WCs5b6Mnps8kpY7tSaF2jU/lMoKyrxOq8A0JH6M3hVwxnCLvnMxSvK8HV63yblEWoPQFlbN0LtvGKHnRTW1f9G4TQ+pVW52WdD8/E8zNCR+jNYhx93fMXileZHzsh9iAVnaB/TiJc9csizXegXdSeeLZk7w8NcRNaz2WZmsTz8pcQOkJvLtcaPFbpVQzFFyvboEb/Hu0XrofPjJ7gEmpPUjlk14IMGO7Y/vLajrcSCXL1R8PqcaaE1qtepibxfHwtQkfoLeUF9tKrE4rX1diiJZ58siU667rcE7hO3hryX/uhLxMeKV/Pdmg52lFNQ+/vr/Ht2QFBWN6wuvZaP3g4kLUf+baz29Qni4TWq3OaWj0vtMW8jtDzK/Qf0DmuOmhXtuFji/L0c9GRmdpLXY+X1CNEtXNYWwtef96hw6Htrd1zUHSyGhN18joSdjcynTmnJPsOtn3oXV/qtNWsHlWrte8bNwfmpdKXqU+VpP9wRzr0ykdDmIT1a2/IDxA6Qm8tqxK1Su9Yl5vJW1fsuj+pJ47dM1EPgSmZSda3rVhrakIbCg3aIDte/7zjiHlx8Ozfo6svJu7kdiLUPu+L3/VsJUJrvvtQPu+xrveSrvr3HQjsUbV6r+kWkJ5ToEfdlvN0OULtTWJVW83pCD3fQr8uUav0TrW5XJnV94q/e7xrjw7VntgaCj14KLDnSbdmnD0XyidbA3uUqB5dysSd7A5yXfo4MnayK9t2BLY1b0ul7vlRtvrmbYG8uyI6833i1Gh/XO+1zPdaT0+oXeJ5GKEj9FbzZcPmJB2ren1OVumNJdL1v8u1odAFb/myfoNvM49PnY56rzcnQ17/2517QnnxVV8GjnCZpFNUHfHam77s2d+80Lv+t7ptc+x4dM69lifOfLEk9z8QnUdOmWListqVLfE8jNAReptwS7JW6fkJvV9ulaYhUA2F9hzoyJC7XZk2oyhL3vNl6/YoiU6zkhuG5C+1iqtvIPPOck+GjXGlY28m6TSF3vU42zeWenLm3KUbztRnqetLW8ncC5rkpnkYH3/iy6sLS/LgY0W5Y6RrXw600kIz6dlqSVR713rat+V8jtAR+tWGvSTIJfRkrq7Rim2wEfuYia489nRJ5i3wzOrLs3uiKu1LHcGp/0xX95MfLUqH3hyNmraXuvZGwrr9crmGM/r9HjkW2KN8317m2RMAp0wryt3jXOk/zJEufQuUJiZ731zZF8+/CB2htyndkiR03bfKe+j9cmg28iCz8nrw8aK8usiztctbPg3k0JHQrOa0PE3skZzapGT2y57cNthF5iluOPP4MyXZtTe02enalEh7CezdH9iSxzff9q3Idc9dEyxv6EI5Yor2zZXubT2XI3SErlwTvy0KtenJRhOZbupWsCF0rRnuOyTKkp/9UklWGLlv36WrNl/mvxF1+mLfNN0NZ/re6cjc1z2bna5NiWw43bzM6VZMr0GOdO0bhdT1pY2Qemr2zetX59cgdIReDqErXRO1Sif03uTwrGbJa9Ma3Su/d5JrO8ENGO6a1TzXJwtS7z/MlRHm5UybEhFOT/XBKw3pVo55HKEj9Iar9D2E3gGAJLj0rc4ROkJP7NGqF9amI3UASH0SXD0dyzWHI3SE3pCvJKsundA7AGRK5lsNX0XoCL0SQk9c9zhC7wBQPpnXVHo++7/lnL8ROkK/mKsMq5MXes93wxkASL3MV8fzK0JH6BUTuvKPiVuls58OAOmVufJP5Z67ETpCvxwvI3UAYM+8TXi5EnM3Qkfol+MPDW4ipU6SHAAku868IUWdTxE6Qq+m0JUJSRQ6UgeA5nWAq63mfDWhUnM3QkfojfFNw3GkDgC0c20ROn9+E6Ej9CQIPXHHq7KnDgBNPWilyjK3x6NWcu5G6Ai9KWVsq5IuderUAaBKp6ZdDp03r0LoCD1JQlf+0uAnWeq2+YwVez11nxHVryN8AGReMXS+/KtKz90IHaE3lQcSLfRLUhOLvp7PZY/gATJallZ9mSsPVWPuRugIval8w7A3fVK/0moeuQPQMKZNOWj4NYSO0JMsdOVHmRD6RS1lP9+DR+wA1Ji3muuqNXcjdITeXJ7OmtQvXLUjdQBqzFvMvGrO3QgdoTeXbxmOZVLq9St2rW9H7ADIvHmcNXwPoSP0NAlduT6rQqcUDoAa8xbSsdpzN0JH6C3l1exLPV6ts7cOQFla4yy8uOYcoSP0NAn9u3GIKdNSb0cIHiA5yW/JyWRvVqgdoSP0pAtdaZ95ocf17EgdgEz2prR3RegIPa1CV17Jh9TjvvFIHSDvyW8NmZOkuRuhI/TW8m3D4VxJnT11AGQezXu/idARepaErvyrIcyN1EmUA8hrJns9Ot/9KGlzN0JH6G3F/XkR+md76ky6AHmUuTIhiXM3QkfobcU1hg9yI3Wb/c4qHSCHMl+r8x1CR+hZFrry+7koZUPqAHmV+TnDf03q3I3QEXpb87P8hN6j5jNkvgPkQubK9UmeuxE6Qi8HU5A6ADQvmz3xMp+S9LkboSP0cu2nv4/UASAjMn+/pfvmCB2hp13oyvcMx/MmdfbUATIn8+NNbe2K0BF6VoWu/LPBy5PUP+v9zmQNkAWZ6/z1z2mZuxE6Qi83vXIl9Avq1FmtA6Q4AU7pnaa5G6Ej9ErwRP6kzr46QMpl/kTa5m6EjtArlSS3Mo9Sp1YdIJUyX9kWSXAIHaFnTujx76yHuOzOpdQ5qQ0gTTI/oPNVGuduhI7QK3aTmf/957nqJEcWPMBnMm+XDpnr/PTnaZ27ETpCr+hNZv7/Hxr8vErdJsyxWgdknkR0XvpxmuduhI7QK36TmX/WPb9Cv6i8DbFDpmVemxaZK93TPncjdIRelZvM/PNRuZd6A7ETiodsURfJvHNqZD4mC3M3QkfoVbvJzL97BKk3EHunWOzIHVKf/FabpufvkazM3QgdoVdT6F8xvIrQL5E8Vy93mtNAWrq+fSbymjQ9bzr/fAWhI3SE3gY3mfn3Xze8g8gvl0DXICTPyh0SFVKPwupW4p1q0viMLdX5J0tzN0JH6FW/ycx/8+uGDxA4cofkifuz1XcDgUf15DVpfqber7TMETpCz4XQGzSe+QRxI3eoprRrL5C2FXenmqw9Q2t1EZHFuRuhI/TE3GTmv/2OYTvCboXc2XOH5si7frWd/hV3U9lo+M2szt0IHaEn6iaLz1HfiahbIXey5eHiZLUvyDuXz8jWcrV0RegIHaFf/vP9bp77vrdtKdzFoXkknzuBd67hWeh8focuFrI+dyN0hJ7Im8z8ud8z7GEiatsV/GeS71T7meiRfXpD5wi8Seg88l/yMHcjdISe2JvM/Nlr4zdrJqWKi77Bqh7ZV1nWFyer5W7fu7Ur82vzMncjdISe6JvM/PnfMWxhYkqC7GsaCOUiOjaFugv42RdeGOryu7q+ZGY5sm6DPfPv5GnuRugIPfE3mfkZv23YwASVsReF+GXhwheGmsu8KDT2IpDCGm6EXYls9v8nb3M3QkfoqbjJzM/5jbgZBJMVLwLNeBEoV2Tgwp9zKWnnPKO8mqzU+SKPczdCR+ipucniNrELmLCgPC8EjWwpdLpQ1J/JmpV20lhUjQ5wCB2hI/SWffZrDLOYuADgImbr/JDnuRuhI/Q0cpVhPBMYAMRMMHw573MjQkfoaaa3wWcyA8gtfjwPMB8idISeAa4zFJjYAHKHPvf/lzkQoSP0bPG3hiNMcAC5QZ/3v2PuQ+gIPZvooS4fMdEBZJ6P4vMemPcQOkLPMN8wzGXCA8gsc+PnnPkOoSP0HKCZriMNIZMfQGbQ53kUmewIHaHnk/9jOMdECJB6zsXPM/MaQkfoOeZPDNuYEAFSiz6/f8pchtAROii/ZniRiREgdbwYP7/MYwgdocMF9DUUmSQBEk8pfl6vYt5C6AgdLsdfG3YzYQIkFn0+/4a5CqEjdGhqCH42EydA4njO8OvMUQgdoUNzaW+oYRIFqDo18fPIvITQETq0mO8bVjOhAlSN1fFzyHyE0BE6tJqvGobFiThMsACVS3wbFj9/zEMIHaFDm/IXhs1MtABlR5+zv2TOQegIHaGXk68Zxhg8Jl2ANkefq3vj54z5BqEjdIReEXT1sIEJGKDN+JhVOUJH6Ai9WlxtGGpwmIwBWowT75VfzZyC0BE6Qk9CJvxiJmaAZrOYDHaEjtARehL5heEIkzTAFTkSPy/MGwgdoSP0xPJNwySS5gAum/Q2MX5OmC8QOkJH6KngvxGGB7iAJfFzwfyA0BE6Qk8l1xl2MJlDjtkRPwfMBwgdoSP01HONoY/hBJM75Ai93/vG9z/zAEJH6Ag9c/vr4w0FJnvIMIX4PmefHKEjdISeeb5nmEbiHGQw4W1afH/znCN0hI7Qc8UfGmYaAmQAKSaI7+M/5JlG6AgdoeedPzXMMvjIAVIm8lnx/ctzjNAROkKHBvyx4RlC8ZCC0Poz8f3Kc4vQETpCh0b4A8PDhjrkAQmiLr4v/4BnFKEjdIQOzePbhpGGU8gEqojef6MMv80zidAROkKH1vF1Q1fDFuQCFWRLfN99nWcQoSN0hA5ty1WG/2VYQGY8lDHRbUF8n13FM4fQETpCh/Lz+4YxhqNICNqAo/H99Ps8WwgdoSN0qA5XG37WLjoIhlU7NHc1vji+f67mWULoCB2hQ3K41jDMsBNZQSPsjO+Ta3lmEDpCR+iQ/L32fzRMNZxEYBDfB1Pj+4K9cYSO0BE6pDQk/2+GZw3nEVuuOB93cvt3QuqA0BE6ZIuvGX5imGE4jfAyyen4+/1J/H1z3wNCR+iQcb5q+BfDA4ZdiDDV7Iq/x39hJQ4IHaED6AEbAwxLDUUkmWj0+3k7/r44GAUQOkIHaLQz3Y8NEwwfG0IkWlX0+m+Mv4//Tec2QOgIHaCl/Jbhp4ZJhnXtOOa13Oj1XR9f75/G15/7EBA6Qgdoc37V8EPDEMOrhiNIuFUcia/jkPi6/ir3GCB0hI7QoZpNbTSzengsp32I+pLsi6/PiPh60dwFEDpCR+iQeH7d8ANDJ8N4w6K4S5mXcWl78edcFH9u/fx/H18P7gtA6AgdoUOmmt38oeFHhlsN98UNUJYb9hpKCRd2Kf49l8e/933x5/hR/LkoHQOEjtAROkC7qDXpbxv+e7yn/AvDbXGYenLcOGVeXGK3Ls4A3xXvRZ+Oqb2MjGsb/DdH4j+3Mf45S+OfOyP+e0bEf+8v4t/jv8e/F61TAaEjdIQOAAAIHaEDAAAAQgcAAEDoAAAAgNABAAAAoQMAAABCBwAAQOgAAACA0AEAAAChAwAAAEIHAABA6AAAAIDQAQAAAKEDAAAAQgcAAEDoAAAAgNABAAAAoQMAAABCBwAAQOgAAACA0AEAAAChAwAAAEIHAABA6AAAAIDQAQAAAKEDAAAAQgcAAEDoAAAAgNABAAAAoQMAAABCBwAAQOgAAACA0AEAAAChAwAAAEIHAAAAhA4AAIDQAQAAAKEDAAAAQgcAAACEDgAAgNABAAAAoQMAAABCBwAAAIQOAACA0AEAAAChAwAAAEIHAAAAhA4AAIDQAQAAAKEDAAAAQgcAAACEDgAAgNABAAAAoQMAAABCBwAAAIQOAACA0AEAACAN/P/iqUa2kfufrwAAAABJRU5ErkJggg==;fontSize=18;fontFamily=Verdana;" vertex="1" parent="1">
          <mxGeometry x="1390" y="-445" width="80" height="80" as="geometry" />
        </mxCell>
        <mxCell id="m4GRKbJbeiHfgQDH205f-7" value="&lt;div&gt;Horizontal Step Scaling&lt;/div&gt;&lt;div&gt;&lt;br&gt;&lt;/div&gt;" style="points=[[0,0],[0.25,0],[0.5,0],[0.75,0],[1,0],[1,0.25],[1,0.5],[1,0.75],[1,1],[0.75,1],[0.5,1],[0.25,1],[0,1],[0,0.75],[0,0.5],[0,0.25]];outlineConnect=0;gradientColor=none;html=1;whiteSpace=wrap;fontSize=12;fontStyle=0;container=1;pointerEvents=0;collapsible=0;recursiveResize=0;shape=mxgraph.aws4.groupCenter;grIcon=mxgraph.aws4.group_auto_scaling_group;grStroke=1;strokeColor=#D86613;fillColor=none;verticalAlign=top;align=center;fontColor=#D86613;dashed=1;spacingTop=25;" vertex="1" parent="1">
          <mxGeometry x="1650" y="30" width="480" height="180" as="geometry" />
        </mxCell>
        <mxCell id="m4GRKbJbeiHfgQDH205f-4" value="&lt;div&gt;Worker&lt;/div&gt;" style="sketch=0;points=[[0,0,0],[0.25,0,0],[0.5,0,0],[0.75,0,0],[1,0,0],[0,1,0],[0.25,1,0],[0.5,1,0],[0.75,1,0],[1,1,0],[0,0.25,0],[0,0.5,0],[0,0.75,0],[1,0.25,0],[1,0.5,0],[1,0.75,0]];outlineConnect=0;fontColor=#232F3E;gradientColor=#F78E04;gradientDirection=north;fillColor=#D05C17;strokeColor=#ffffff;dashed=0;verticalLabelPosition=bottom;verticalAlign=top;align=center;html=1;fontSize=18;fontStyle=0;aspect=fixed;shape=mxgraph.aws4.resourceIcon;resIcon=mxgraph.aws4.fargate;fontFamily=Verdana;" vertex="1" parent="m4GRKbJbeiHfgQDH205f-7">
          <mxGeometry x="200" y="68.5" width="78" height="78" as="geometry" />
        </mxCell>
        <mxCell id="m4GRKbJbeiHfgQDH205f-35" value="Worker" style="sketch=0;points=[[0,0,0],[0.25,0,0],[0.5,0,0],[0.75,0,0],[1,0,0],[0,1,0],[0.25,1,0],[0.5,1,0],[0.75,1,0],[1,1,0],[0,0.25,0],[0,0.5,0],[0,0.75,0],[1,0.25,0],[1,0.5,0],[1,0.75,0]];outlineConnect=0;fontColor=#232F3E;gradientColor=#F78E04;gradientDirection=north;fillColor=#D05C17;strokeColor=#ffffff;dashed=0;verticalLabelPosition=bottom;verticalAlign=top;align=center;html=1;fontSize=18;fontStyle=0;aspect=fixed;shape=mxgraph.aws4.resourceIcon;resIcon=mxgraph.aws4.fargate;fontFamily=Verdana;" vertex="1" parent="m4GRKbJbeiHfgQDH205f-7">
          <mxGeometry x="350" y="68.5" width="78" height="78" as="geometry" />
        </mxCell>
        <mxCell id="m4GRKbJbeiHfgQDH205f-34" value="Worker" style="sketch=0;points=[[0,0,0],[0.25,0,0],[0.5,0,0],[0.75,0,0],[1,0,0],[0,1,0],[0.25,1,0],[0.5,1,0],[0.75,1,0],[1,1,0],[0,0.25,0],[0,0.5,0],[0,0.75,0],[1,0.25,0],[1,0.5,0],[1,0.75,0]];outlineConnect=0;fontColor=#232F3E;gradientColor=#F78E04;gradientDirection=north;fillColor=#D05C17;strokeColor=#ffffff;dashed=0;verticalLabelPosition=bottom;verticalAlign=top;align=center;html=1;fontSize=18;fontStyle=0;aspect=fixed;shape=mxgraph.aws4.resourceIcon;resIcon=mxgraph.aws4.fargate;direction=east;fontFamily=Verdana;" vertex="1" parent="m4GRKbJbeiHfgQDH205f-7">
          <mxGeometry x="50" y="68.5" width="78" height="78" as="geometry" />
        </mxCell>
        <mxCell id="m4GRKbJbeiHfgQDH205f-38" style="edgeStyle=orthogonalEdgeStyle;rounded=0;orthogonalLoop=1;jettySize=auto;html=1;exitX=0.75;exitY=1;exitDx=0;exitDy=0;entryX=1;entryY=0.25;entryDx=0;entryDy=0;entryPerimeter=0;" edge="1" parent="1" source="m4GRKbJbeiHfgQDH205f-7" target="m4GRKbJbeiHfgQDH205f-17">
          <mxGeometry relative="1" as="geometry">
            <mxPoint x="1985" y="250" as="sourcePoint" />
            <mxPoint x="1738" y="309" as="targetPoint" />
            <Array as="points">
              <mxPoint x="2010" y="510" />
            </Array>
          </mxGeometry>
        </mxCell>
        <mxCell id="m4GRKbJbeiHfgQDH205f-41" value="pending-task-dlq" style="sketch=0;points=[[0,0,0],[0.25,0,0],[0.5,0,0],[0.75,0,0],[1,0,0],[0,1,0],[0.25,1,0],[0.5,1,0],[0.75,1,0],[1,1,0],[0,0.25,0],[0,0.5,0],[0,0.75,0],[1,0.25,0],[1,0.5,0],[1,0.75,0]];outlineConnect=0;fontColor=#232F3E;gradientColor=#FF4F8B;gradientDirection=north;fillColor=#BC1356;strokeColor=#ffffff;dashed=0;verticalLabelPosition=bottom;verticalAlign=top;align=center;html=1;fontSize=18;fontStyle=0;aspect=fixed;shape=mxgraph.aws4.resourceIcon;resIcon=mxgraph.aws4.sqs;fontFamily=Verdana;" vertex="1" parent="1">
          <mxGeometry x="1806" y="-286" width="78" height="78" as="geometry" />
        </mxCell>
        <mxCell id="m4GRKbJbeiHfgQDH205f-48" style="edgeStyle=orthogonalEdgeStyle;rounded=0;orthogonalLoop=1;jettySize=auto;html=1;entryX=0.25;entryY=0;entryDx=0;entryDy=0;entryPerimeter=0;" edge="1" parent="1" source="m4GRKbJbeiHfgQDH205f-46" target="m4GRKbJbeiHfgQDH205f-1">
          <mxGeometry relative="1" as="geometry">
            <Array as="points">
              <mxPoint x="1670" y="-243" />
            </Array>
          </mxGeometry>
        </mxCell>
        <mxCell id="m4GRKbJbeiHfgQDH205f-46" value="Event Bridge &lt;br&gt;Operation Scheduler" style="sketch=0;points=[[0,0,0],[0.25,0,0],[0.5,0,0],[0.75,0,0],[1,0,0],[0,1,0],[0.25,1,0],[0.5,1,0],[0.75,1,0],[1,1,0],[0,0.25,0],[0,0.5,0],[0,0.75,0],[1,0.25,0],[1,0.5,0],[1,0.75,0]];outlineConnect=0;fontColor=#232F3E;gradientColor=#FF4F8B;gradientDirection=north;fillColor=#BC1356;strokeColor=#ffffff;dashed=0;verticalLabelPosition=bottom;verticalAlign=top;align=center;html=1;fontSize=18;fontStyle=0;aspect=fixed;shape=mxgraph.aws4.resourceIcon;resIcon=mxgraph.aws4.eventbridge;fontFamily=Verdana;" vertex="1" parent="1">
          <mxGeometry x="1186" y="-282" width="78" height="78" as="geometry" />
        </mxCell>
      </root>
    </mxGraphModel>
  </diagram>
</mxfile>
